<?xml version="1.0" standalone="no"?>
<!DOCTYPE svg PUBLIC "-//W3C//DTD SVG 20010904//EN"
 "http://www.w3.org/TR/2001/REC-SVG-20010904/DTD/svg10.dtd">
<svg version="1.0" xmlns="http://www.w3.org/2000/svg"
 width="2745.000000pt" height="3753.000000pt" viewBox="0 0 2745.000000 3753.000000"
 preserveAspectRatio="xMidYMid meet">

<g transform="translate(0.000000,3753.000000) scale(0.100000,-0.100000)"
fill="#000000" stroke="none">
<path d="M15100 37228 l0 -303 -31 38 c-17 21 -54 50 -83 65 -47 25 -60 27
-171 27 -114 0 -124 -2 -186 -31 -152 -72 -243 -218 -269 -431 -26 -213 38
-415 162 -513 76 -61 146 -83 258 -84 83 0 102 3 155 27 33 16 83 51 113 80
l52 51 0 -67 0 -67 155 0 155 0 0 755 0 755 -155 0 -155 0 0 -302z m-105 -431
c91 -52 128 -165 107 -325 -14 -101 -45 -161 -109 -206 -81 -56 -205 -34 -264
47 -40 55 -52 106 -51 212 1 189 81 295 222 295 38 0 67 -7 95 -23z"/>
<path d="M17460 37230 l0 -300 -41 45 c-56 60 -123 85 -233 85 -141 0 -238
-40 -325 -136 -93 -101 -141 -247 -141 -421 1 -181 49 -313 150 -406 82 -77
146 -100 270 -100 125 0 193 25 267 99 l53 53 0 -65 0 -64 160 0 160 0 0 755
0 755 -160 0 -160 0 0 -300z m-117 -424 c43 -17 101 -85 115 -135 16 -52 15
-195 -1 -259 -29 -110 -105 -175 -206 -175 -142 0 -219 114 -209 307 8 136 48
216 133 260 37 20 125 21 168 2z"/>
<path d="M9387 37499 c-52 -27 -77 -72 -77 -135 0 -101 83 -170 192 -161 99 8
156 57 165 141 8 65 -18 120 -72 152 -54 31 -151 33 -208 3z"/>
<path d="M13905 37506 c-42 -18 -83 -69 -91 -112 -30 -161 198 -261 316 -139
74 77 49 211 -46 251 -42 18 -139 17 -179 0z"/>
<path d="M6632 36948 c4 -485 5 -506 26 -576 33 -108 67 -169 131 -232 103
-103 224 -144 426 -144 144 0 247 22 337 71 72 39 154 131 193 215 60 131 65
185 65 704 l0 464 -159 0 -160 0 -3 -488 -3 -487 -32 -66 c-22 -45 -45 -75
-70 -92 -111 -76 -292 -53 -364 46 -62 85 -63 96 -67 615 l-3 472 -160 0 -160
0 3 -502z"/>
<path d="M8608 37042 c-64 -23 -131 -72 -168 -123 l-30 -42 0 81 0 82 -160 0
-160 0 0 -510 0 -510 160 0 160 0 0 313 c0 189 4 327 11 350 12 46 68 110 109
127 17 7 53 11 85 8 65 -5 97 -30 129 -98 19 -42 21 -65 24 -372 l4 -328 154
0 154 0 0 353 c0 381 -6 441 -54 535 -32 63 -96 118 -160 137 -67 20 -199 19
-258 -3z"/>
<path d="M11308 37041 c-165 -53 -293 -192 -333 -362 -20 -85 -19 -254 1 -332
46 -176 165 -294 344 -338 74 -19 285 -16 370 4 36 9 86 25 113 36 l47 20 0
111 c0 60 -2 110 -4 110 -2 0 -25 -10 -52 -22 -80 -35 -144 -48 -240 -48 -144
0 -219 35 -260 124 -13 28 -24 61 -24 74 l0 22 330 0 330 0 0 118 c0 266 -95
419 -301 483 -82 25 -241 25 -321 0z m260 -218 c40 -30 63 -75 69 -138 l6 -55
-187 0 -186 0 0 23 c0 30 44 118 73 145 12 11 36 28 52 37 41 22 136 16 173
-12z"/>
<path d="M12643 37050 c-36 -8 -114 -52 -131 -73 -7 -8 -26 -39 -42 -68 l-30
-54 0 93 0 92 -160 0 -160 0 0 -510 0 -510 160 0 160 0 0 278 c0 303 5 343 55
408 35 45 66 65 120 75 42 8 115 0 158 -16 16 -7 17 4 17 138 l0 145 -31 6
c-38 7 -74 6 -116 -4z"/>
<path d="M13146 37045 c-189 -48 -285 -163 -274 -329 10 -148 93 -229 303
-296 124 -40 175 -75 175 -119 -2 -107 -230 -125 -422 -32 l-58 27 0 -126 0
-127 58 -17 c142 -40 316 -44 446 -10 126 33 202 88 247 179 29 60 31 70 27
148 -3 69 -9 92 -32 131 -34 58 -114 113 -223 151 -168 60 -213 88 -213 132 0
38 16 59 60 77 73 29 218 13 311 -34 l40 -21 -3 123 -3 123 -50 13 c-76 21
-317 25 -389 7z"/>
<path d="M15895 37041 c-44 -11 -106 -29 -137 -41 l-58 -21 0 -118 0 -118 78
38 c183 92 375 90 432 -3 20 -32 28 -98 12 -98 -23 0 -304 -41 -347 -51 -72
-16 -161 -66 -200 -112 -67 -78 -89 -224 -51 -336 25 -74 93 -142 167 -167 63
-21 183 -24 245 -6 57 17 128 66 164 115 l30 41 0 -72 0 -72 150 0 150 0 0
343 c0 369 -6 420 -54 516 -32 62 -103 124 -175 152 -80 32 -292 36 -406 10z
m335 -607 c0 -87 -34 -154 -97 -191 -38 -22 -53 -25 -108 -21 -50 3 -70 9 -90
28 -47 44 -51 125 -8 172 30 33 69 48 166 62 149 22 137 26 137 -50z"/>
<path d="M9330 36530 l0 -510 155 0 155 0 0 510 0 510 -155 0 -155 0 0 -510z"/>
<path d="M9805 36973 c77 -215 335 -947 335 -949 0 -2 82 -4 183 -4 l182 0
184 498 c101 273 186 503 189 510 3 9 -33 12 -161 12 l-164 0 -97 -339 c-53
-187 -103 -368 -110 -402 l-13 -63 -12 64 c-7 36 -50 198 -96 360 -46 162 -88
314 -94 338 l-12 42 -169 0 -170 0 25 -67z"/>
<path d="M13830 36530 l0 -510 160 0 160 0 0 510 0 510 -160 0 -160 0 0 -510z"/>
<path d="M23713 36636 c-56 -18 -101 -47 -144 -93 -61 -64 -689 -871 -699
-898 -6 -15 -10 -50 -10 -78 0 -96 61 -157 158 -157 50 0 294 75 1035 316 59
20 89 37 130 74 125 114 169 303 107 461 -51 129 -190 284 -314 350 -52 28
-73 33 -141 36 -49 2 -96 -3 -122 -11z m224 -97 c63 -31 199 -168 245 -247 86
-150 64 -319 -56 -430 -25 -23 -47 -42 -50 -42 -2 0 -235 -74 -517 -165 -282
-91 -524 -165 -539 -165 -15 0 -39 9 -54 21 -31 25 -35 79 -8 121 52 81 679
866 707 886 80 57 182 65 272 21z"/>
<path d="M19876 36444 c-156 -79 -299 -129 -432 -148 -141 -21 -481 -55 -691
-69 -141 -10 -185 -16 -207 -30 -89 -59 -87 -197 3 -250 18 -11 59 -20 99 -23
78 -5 146 -35 176 -77 21 -28 21 -35 24 -1408 2 -1332 2 -1379 -16 -1379 -75
0 -177 75 -215 158 -22 46 -22 56 -27 777 l-5 730 -26 63 c-83 196 -211 311
-399 358 -48 12 -94 15 -185 12 -152 -6 -164 -11 -590 -217 -279 -135 -331
-157 -336 -143 -4 9 -14 42 -24 74 -36 114 -127 199 -259 241 -99 31 -305 30
-453 -1 -184 -40 -411 -135 -598 -251 l-80 -49 -5 153 c-6 170 -11 184 -77
206 -62 20 -205 -15 -311 -77 -115 -68 -273 -116 -437 -134 -120 -13 -460 -30
-603 -30 -112 0 -145 -10 -181 -56 -16 -20 -21 -41 -21 -81 0 -49 4 -59 33
-88 26 -26 44 -34 87 -39 85 -11 179 -45 196 -71 34 -52 36 -87 34 -610 -2
-571 -1 -563 -63 -607 -19 -13 -51 -23 -84 -26 -54 -5 -55 -4 -101 44 -28 29
-52 66 -60 90 -9 30 -12 178 -12 558 l0 518 -30 75 c-80 198 -229 349 -420
422 -109 42 -297 81 -440 92 -136 10 -685 3 -951 -11 -190 -11 -301 -35 -452
-98 -216 -90 -328 -208 -357 -375 -35 -196 90 -344 331 -393 65 -13 113 -15
219 -11 182 8 300 41 438 122 88 51 127 88 156 147 45 91 32 192 -39 289 l-36
48 36 7 c72 13 158 -19 219 -82 l36 -37 0 -227 0 -227 -167 -6 c-306 -12 -620
-61 -823 -127 -131 -43 -283 -120 -358 -181 l-63 -51 -38 35 c-46 42 -97 53
-145 33 -19 -8 -93 -70 -163 -138 -198 -190 -243 -222 -352 -248 -67 -16 -242
-8 -326 15 -229 62 -390 233 -456 485 -29 110 -32 302 -6 400 54 202 188 344
337 357 96 9 103 -2 30 -45 -173 -101 -263 -267 -231 -423 36 -171 157 -312
344 -399 387 -181 798 2 874 389 54 272 -108 492 -462 630 -496 193 -1115 165
-1611 -73 -153 -73 -269 -152 -379 -257 -151 -145 -251 -311 -297 -495 -19
-75 -22 -116 -22 -259 0 -182 15 -268 68 -388 23 -52 23 -53 6 -105 -34 -103
-89 -129 -155 -71 -64 56 -65 68 -65 654 0 497 -1 525 -20 580 -44 127 -141
264 -243 341 -151 114 -398 185 -692 199 -164 8 -912 -11 -1024 -25 -198 -26
-443 -131 -549 -236 -86 -86 -115 -151 -120 -271 -4 -85 -2 -98 22 -147 49
-99 156 -170 307 -202 103 -22 313 -15 429 15 106 27 252 99 317 157 117 102
126 254 23 384 l-31 39 37 7 c51 9 127 -10 178 -45 76 -53 76 -52 76 -304 l0
-224 -167 -6 c-397 -16 -746 -83 -981 -188 -98 -45 -224 -132 -281 -196 -61
-68 -114 -173 -137 -268 -46 -199 34 -425 216 -605 113 -110 237 -179 395
-216 89 -22 366 -25 475 -5 174 31 376 113 529 216 l80 54 20 -33 c28 -45 116
-127 172 -159 25 -15 72 -37 105 -49 55 -20 79 -22 374 -26 364 -4 414 2 549
69 102 50 220 158 291 268 27 41 51 79 53 85 2 6 31 -15 64 -47 85 -83 178
-148 303 -211 268 -138 563 -194 915 -174 412 22 874 260 1135 584 58 73 60
74 65 47 59 -295 299 -540 600 -615 127 -31 395 -31 535 0 172 37 350 114 497
214 40 27 73 45 73 40 0 -18 121 -141 171 -172 28 -18 80 -45 117 -59 66 -25
72 -25 386 -29 365 -4 417 3 542 69 l74 38 0 -64 0 -65 2461 0 2461 0 29 21
c46 33 154 78 227 95 53 13 101 15 227 11 183 -6 342 -31 525 -82 178 -49 296
-66 473 -66 281 1 503 59 741 197 271 156 467 352 576 578 76 157 94 239 94
431 1 136 -3 173 -23 249 -99 378 -392 704 -755 841 -277 104 -631 106 -933 6
l-83 -27 0 660 c0 621 -2 663 -19 701 -27 58 -62 87 -113 91 -37 4 -60 -5
-172 -62z m192 -35 c11 -11 23 -34 26 -51 3 -17 6 -345 6 -730 0 -556 3 -699
13 -695 235 100 344 126 563 134 245 9 406 -22 588 -113 123 -62 205 -122 306
-224 183 -184 296 -409 322 -645 24 -215 -28 -422 -157 -620 -55 -86 -245
-270 -346 -338 -114 -75 -258 -151 -361 -188 -140 -52 -238 -70 -413 -76 -191
-7 -318 9 -506 63 -236 67 -546 104 -706 84 -101 -13 -215 -49 -289 -91 l-51
-29 -2412 0 -2411 0 0 100 c0 55 -2 100 -4 100 -3 0 -34 -22 -70 -49 -88 -67
-197 -118 -276 -131 -102 -16 -562 -13 -643 5 -135 28 -254 116 -319 235 -18
33 -35 60 -38 60 -3 0 -38 -25 -78 -55 -147 -110 -302 -187 -470 -233 -91 -24
-111 -26 -312 -26 -207 0 -218 0 -295 26 -233 79 -429 283 -480 500 -19 81
-19 128 1 224 57 273 402 466 960 538 144 19 385 36 512 36 l92 0 0 284 0 284
-51 56 c-74 81 -141 111 -249 111 -75 0 -93 -4 -155 -33 l-69 -33 61 -54 c67
-61 113 -138 113 -193 0 -80 -62 -147 -195 -213 -131 -64 -215 -82 -390 -83
-169 0 -238 16 -325 75 -77 53 -95 88 -95 188 0 70 4 95 23 133 47 95 153 175
315 236 156 58 224 71 436 82 260 13 918 13 1001 -1 366 -58 552 -175 669
-419 l36 -75 5 -550 c5 -547 5 -550 28 -592 91 -170 254 -209 380 -89 73 68
69 40 73 646 4 611 4 612 -67 683 -37 37 -125 71 -219 83 -27 4 -53 12 -57 18
-14 21 -8 65 10 74 9 5 130 12 267 16 365 9 549 27 685 68 36 11 133 52 215
91 138 66 155 72 215 72 l65 0 3 -217 2 -217 124 83 c347 233 708 350 977 317
201 -26 302 -126 317 -317 l7 -84 405 196 c264 128 431 202 479 215 255 65
495 -38 603 -259 l33 -67 5 -730 c5 -682 7 -733 24 -780 25 -65 41 -91 90
-143 64 -68 125 -95 229 -100 l87 -4 0 1406 c0 981 -3 1420 -11 1450 -24 96
-119 162 -249 173 -80 7 -110 25 -110 67 0 49 36 62 180 69 152 7 593 51 727
72 131 21 288 74 433 148 69 35 130 64 137 65 7 1 21 -7 31 -19z m-9768 -1355
c317 -46 558 -143 701 -284 94 -92 121 -153 121 -271 0 -93 -13 -144 -59 -232
-135 -257 -510 -322 -787 -136 -136 91 -208 201 -215 327 -4 98 16 149 88 221
66 66 165 120 276 151 44 12 82 24 84 25 7 7 -137 74 -194 90 -84 25 -195 17
-268 -19 -202 -98 -320 -349 -304 -644 8 -137 35 -243 94 -362 38 -79 61 -109
132 -180 147 -146 278 -199 508 -207 237 -9 298 20 545 256 156 149 173 159
215 119 18 -17 23 -32 23 -75 0 -50 -6 -63 -75 -173 -95 -149 -179 -253 -284
-352 -185 -174 -453 -316 -729 -386 -101 -25 -120 -27 -332 -27 -240 1 -324
11 -492 60 -246 71 -484 217 -618 379 -30 36 -57 66 -60 66 -3 0 -19 -31 -37
-68 -97 -203 -246 -349 -412 -404 -60 -19 -93 -22 -348 -26 -324 -4 -390 3
-492 54 -79 40 -166 125 -205 202 -14 29 -30 52 -34 52 -4 -1 -35 -22 -70 -49
-147 -111 -303 -190 -477 -238 -95 -27 -110 -28 -315 -28 -207 0 -218 2 -295
27 -116 40 -199 92 -290 184 -203 204 -254 429 -146 642 112 222 406 364 891
432 146 21 412 40 553 40 l87 0 0 270 c0 307 2 296 -82 376 -70 66 -130 89
-233 89 -70 0 -89 -4 -150 -33 l-70 -33 58 -51 c102 -90 141 -192 102 -267
-22 -44 -91 -98 -180 -142 -245 -120 -589 -117 -735 8 -63 55 -83 103 -78 187
11 172 134 286 403 375 66 22 161 45 210 51 134 17 1051 26 1153 11 361 -53
555 -168 669 -397 l48 -97 5 -556 5 -556 24 -53 c42 -94 138 -152 215 -131 52
14 86 47 117 113 44 92 46 129 11 206 -49 108 -67 206 -66 365 1 194 35 323
126 476 271 451 989 720 1668 623z"/>
<path d="M20292 34899 c-54 -27 -115 -96 -152 -174 -59 -123 -59 -132 -60
-819 -1 -702 -3 -687 69 -782 48 -64 104 -102 171 -116 48 -10 64 -9 115 7 49
15 72 31 126 85 58 57 70 75 88 134 20 66 21 86 21 670 0 570 -1 607 -20 682
-39 153 -120 272 -213 315 -55 24 -92 24 -145 -2z m117 -79 c73 -37 139 -147
167 -280 12 -60 14 -169 12 -663 -3 -582 -3 -593 -25 -639 -47 -102 -157 -169
-240 -146 -53 14 -126 92 -147 156 -15 45 -17 113 -14 683 3 618 4 635 25 690
30 79 49 113 86 155 25 29 72 61 95 64 1 0 20 -9 41 -20z"/>
<path d="M15695 34609 c-71 -39 -136 -76 -143 -81 -10 -9 -12 -142 -10 -672
l3 -661 23 -57 c24 -58 81 -121 128 -138 99 -38 199 28 250 165 18 47 19 93
22 695 2 455 -1 660 -9 699 -14 67 -61 121 -105 121 -17 0 -85 -31 -159 -71z
m175 -36 c11 -22 14 -158 15 -668 2 -599 1 -644 -17 -702 -21 -70 -72 -133
-108 -133 -38 0 -80 33 -105 84 l-25 50 0 637 0 637 108 60 c59 33 110 61 113
61 3 1 12 -11 19 -26z"/>
<path d="M17097 34604 l-138 -76 3 -677 3 -676 24 -53 c73 -161 252 -175 339
-26 51 89 51 87 52 786 2 717 1 732 -57 777 -43 35 -77 26 -226 -55z m193 -52
c6 -24 10 -265 10 -666 0 -709 1 -703 -72 -780 -33 -34 -41 -38 -70 -32 -18 3
-45 18 -60 33 -57 54 -58 68 -58 748 l0 622 112 61 c62 33 116 58 120 56 4 -3
12 -21 18 -42z"/>
<path d="M12640 34079 c-185 -36 -290 -190 -290 -424 1 -209 85 -403 197 -451
77 -33 180 -4 226 64 55 78 57 96 57 467 l0 342 -37 7 c-48 8 -96 6 -153 -5z
m105 -385 c0 -302 -1 -310 -23 -351 -22 -41 -64 -73 -97 -73 -91 0 -179 153
-192 337 -13 175 43 309 152 365 36 19 125 38 150 33 6 -1 10 -113 10 -311z"/>
<path d="M6890 34079 c-193 -38 -300 -208 -287 -459 11 -209 90 -373 203 -416
93 -35 187 2 239 97 l30 54 3 361 3 361 -38 7 c-48 7 -96 6 -153 -5z m108
-365 c3 -314 -1 -350 -48 -406 -24 -28 -34 -33 -73 -33 -38 0 -52 5 -81 34
-72 70 -122 237 -113 376 10 140 63 242 148 286 36 18 131 39 154 34 6 -1 11
-108 13 -291z"/>
<path d="M2223 36419 c-18 -5 -48 -25 -67 -44 -59 -59 -60 -137 -3 -202 39
-44 82 -63 144 -63 l48 0 423 -780 422 -780 0 -625 c0 -598 -1 -627 -20 -677
-11 -29 -34 -70 -51 -90 l-30 -38 -156 0 c-173 0 -206 -9 -246 -64 -17 -24
-22 -45 -22 -91 0 -69 18 -101 76 -134 37 -21 42 -21 1241 -21 l1203 0 38 25
c47 33 67 72 67 132 0 61 -27 106 -79 133 -35 18 -59 20 -194 20 l-154 0 -33
73 c-18 39 -44 115 -58 167 l-26 95 -4 562 -3 563 92 172 c160 302 354 610
545 868 39 52 91 124 116 160 96 137 259 262 416 320 162 59 190 82 199 162 7
59 -18 110 -66 140 l-36 23 -1875 2 c-1149 1 -1888 -2 -1907 -8z m3787 -99
c46 -46 16 -88 -87 -125 -201 -71 -371 -192 -481 -342 -355 -485 -509 -725
-698 -1089 l-84 -161 0 -545 c0 -447 3 -561 15 -634 19 -104 62 -239 105 -324
l30 -60 176 0 c172 0 175 0 199 -25 32 -31 32 -69 0 -100 l-24 -25 -1176 0
c-1013 0 -1180 2 -1204 15 -48 24 -55 72 -16 110 24 25 27 25 193 25 l168 0
30 33 c47 49 73 91 97 154 21 57 22 67 25 694 l3 636 -442 816 -443 817 -62 0
c-75 0 -110 14 -130 51 -16 32 -6 71 23 88 12 7 601 10 1891 11 1859 0 1872 0
1892 -20z"/>
<path d="M4340 36168 c-59 -23 -145 -100 -175 -157 l-17 -33 219 -613 c163
-458 221 -611 230 -603 20 16 150 288 183 382 76 220 110 421 110 649 l0 156
-57 62 c-143 155 -338 217 -493 157z m283 -101 c45 -22 94 -57 130 -93 l57
-58 0 -117 c0 -148 -22 -315 -60 -465 -29 -112 -91 -283 -129 -353 l-18 -33
-181 510 c-100 281 -182 513 -182 516 0 3 17 24 37 47 89 98 208 114 346 46z"/>
<path d="M24705 35119 c-312 -142 -660 -208 -1012 -194 -146 5 -176 4 -202 -9
-59 -31 -80 -120 -42 -182 17 -28 73 -64 100 -64 24 0 89 -40 115 -70 l26 -32
0 -513 0 -513 -24 -29 c-40 -47 -120 -85 -192 -91 l-64 -5 0 809 c0 790 -1
810 -20 842 -38 61 -120 92 -195 73 -22 -6 -96 -26 -165 -46 -295 -84 -636
-134 -980 -144 -192 -5 -230 -9 -253 -24 -40 -26 -59 -61 -59 -112 0 -82 44
-122 147 -135 116 -14 201 -86 223 -188 7 -28 13 -323 17 -731 l6 -684 40 -78
c144 -277 438 -337 848 -172 176 71 464 229 611 336 l65 48 3 -201 2 -200 733
0 c473 0 745 4 769 10 50 14 97 55 119 105 26 56 24 91 -6 121 -23 23 -30 25
-123 23 -115 -2 -137 6 -162 64 -36 81 -40 188 -40 1073 l0 861 -22 28 c-27
34 -92 65 -138 65 -20 0 -75 -18 -125 -41z m187 -66 c16 -14 17 -82 20 -932
l3 -916 23 -67 c42 -125 107 -165 246 -152 70 6 74 5 70 -12 -7 -27 -25 -49
-50 -62 -16 -8 -227 -13 -723 -17 l-701 -5 0 250 0 251 -87 -72 c-226 -186
-591 -387 -848 -465 -78 -24 -107 -28 -225 -28 -127 -1 -139 1 -193 26 -72 34
-146 109 -186 189 l-31 62 -1 316 c-1 174 -4 492 -8 706 l-6 390 -26 56 c-51
108 -136 170 -261 190 -34 6 -68 15 -75 21 -17 13 -17 53 0 65 6 5 120 15 252
22 249 12 462 35 650 71 136 26 376 86 423 106 55 23 118 18 147 -11 l25 -24
0 -831 c0 -456 1 -830 3 -830 1 0 28 -4 60 -10 117 -19 236 22 326 112 l51 51
0 547 0 547 -30 42 c-34 47 -106 96 -154 106 -46 10 -76 33 -76 58 0 43 11 46
209 40 351 -10 656 46 976 182 55 23 107 45 115 48 21 8 62 -2 82 -20z"/>
<path d="M4716 32531 c5 -5 196 -144 425 -310 l417 -301 2068 0 2069 0 0 310
0 310 -2494 0 c-1433 0 -2491 -4 -2485 -9z"/>
<path d="M17755 32230 l0 -310 2069 0 2068 0 417 301 c229 166 420 306 426
310 5 5 -1110 9 -2485 9 l-2495 0 0 -310z"/>
<path d="M4600 28401 l0 -3881 375 0 375 0 0 3609 0 3609 -342 248 c-189 136
-358 259 -375 272 l-33 24 0 -3881z"/>
<path d="M22448 32007 l-347 -252 -1 -3617 0 -3618 355 0 355 0 0 3870 c0
2129 -3 3870 -7 3870 -5 -1 -164 -114 -355 -253z"/>
<path d="M5770 26413 l0 -4958 72 165 c147 337 382 784 574 1092 171 274 466
693 482 686 4 -2 62 -36 129 -76 467 -279 1053 -389 1603 -301 204 33 500 128
682 220 581 292 989 798 1122 1390 14 63 28 146 32 186 l7 72 -49 -4 c-27 -3
-115 -10 -195 -15 l-145 -10 -370 95 c-203 52 -467 120 -587 151 l-218 56
-194 -4 -193 -4 -83 -41 c-46 -23 -109 -63 -139 -90 -85 -74 -97 -82 -60 -35
46 57 121 114 205 154 l70 33 207 3 208 3 567 -147 c402 -104 583 -146 618
-145 28 0 154 8 280 16 572 36 1202 58 1294 45 140 -20 233 -73 286 -164 70
-122 181 -476 265 -846 89 -395 106 -443 223 -631 124 -201 223 -420 252 -560
25 -120 37 -303 26 -419 -7 -85 -15 -118 -42 -174 -43 -92 -46 -158 -7 -191
15 -13 57 -33 93 -45 37 -12 69 -29 72 -37 4 -9 -24 -43 -82 -95 -86 -81 -107
-110 -97 -137 3 -7 35 -26 71 -43 93 -42 125 -69 159 -138 l31 -60 -29 -63
c-30 -68 -60 -193 -60 -254 0 -78 15 -104 129 -217 l110 -109 -68 -134 -67
-133 8 -77 c9 -90 48 -232 85 -315 l25 -57 -40 -103 c-83 -217 -122 -421 -122
-645 0 -138 -1 -143 -34 -220 -75 -176 -168 -340 -281 -497 -30 -43 -55 -83
-55 -89 0 -7 33 -70 74 -141 l73 -130 -74 -168 c-40 -93 -73 -176 -73 -184 0
-9 25 -58 56 -109 69 -115 94 -193 94 -289 0 -107 -25 -151 -113 -196 -116
-60 -111 -48 -115 -283 -4 -235 1 -262 58 -307 51 -40 61 -79 51 -190 -5 -48
-4 -125 1 -177 8 -79 7 -97 -7 -127 -20 -42 -58 -71 -123 -96 l-46 -18 -31
-93 c-30 -91 -32 -108 -58 -489 -15 -217 -29 -487 -32 -600 -4 -117 -11 -206
-16 -208 -29 -11 -75 -63 -96 -109 -22 -51 -23 -64 -23 -289 l0 -235 -50 -60
c-59 -71 -129 -174 -190 -279 -54 -92 -130 -169 -207 -206 l-58 -29 130 -5
c72 -3 149 -2 172 2 57 10 434 231 465 273 24 32 24 30 18 215 -2 70 2 99 24
165 l26 80 0 422 0 421 206 458 205 458 99 681 c54 374 101 716 105 760 24
287 107 559 235 766 l30 49 0 464 0 464 32 27 c109 92 130 155 159 494 18 211
27 279 58 400 35 141 37 146 71 165 46 27 124 27 170 0 66 -37 146 -252 179
-480 31 -214 78 -327 196 -466 28 -33 33 -49 44 -135 6 -54 25 -155 43 -225
l31 -128 -40 -43 c-65 -71 -75 -111 -71 -283 l3 -149 38 -65 c88 -153 138
-267 167 -382 74 -296 176 -851 225 -1226 23 -179 24 -197 10 -249 -17 -65
-19 -149 -5 -208 5 -23 112 -275 238 -561 l229 -521 10 -389 c5 -214 10 -420
10 -459 1 -38 9 -90 17 -114 11 -31 16 -80 16 -170 l0 -127 141 -130 141 -131
197 -6 c161 -6 207 -4 256 8 64 17 105 39 105 56 0 22 -79 41 -221 53 -82 7
-151 15 -152 17 -2 2 -16 23 -32 47 -15 24 -45 56 -65 72 l-37 30 -5 129 c-4
115 -8 135 -32 185 -28 58 -75 99 -147 129 l-36 15 -6 92 c-12 158 -10 174 19
201 79 73 86 217 14 294 -21 23 -33 88 -79 415 -42 301 -76 582 -106 885 -37
379 -60 472 -181 725 -41 86 -74 169 -74 186 0 43 23 70 73 82 79 20 82 28 67
208 -13 153 -13 156 -39 166 -18 6 -44 6 -80 -1 -119 -24 -139 -14 -157 78 -6
31 -19 86 -30 124 l-18 67 107 103 c104 100 107 104 107 146 0 55 -16 87 -91
186 -107 141 -175 259 -224 390 -45 120 -81 540 -71 820 7 169 28 410 45 498
6 36 5 52 -7 69 -28 43 -77 89 -127 120 -27 18 -52 33 -54 34 -1 2 13 47 32
101 47 132 61 228 54 366 -13 261 -135 508 -354 717 l-93 89 -82 -39 c-135
-65 -295 -87 -373 -51 -60 27 -72 47 -95 156 -26 121 -62 199 -131 284 l-52
65 8 165 c5 91 9 206 9 254 l1 89 -40 33 c-83 71 -94 83 -105 126 -16 56 0
178 25 192 40 22 86 72 109 119 53 106 27 238 -66 342 l-52 59 0 161 c0 178
15 276 65 440 17 54 29 99 27 100 -2 1 -41 12 -88 25 -188 49 -401 178 -535
324 -155 168 -293 437 -345 667 l-12 56 -379 -4 c-563 -6 -974 26 -1464 114
l-139 25 -116 -17 c-160 -25 -474 -25 -630 0 -142 22 -249 46 -371 85 -131 42
-153 44 -339 32 -483 -30 -772 -120 -978 -306 l-50 -45 -173 0 -172 0 -152
158 c-83 86 -170 178 -193 204 l-43 46 30 18 30 18 -74 48 c-96 63 -177 153
-226 253 -58 119 -72 188 -66 320 8 182 64 311 187 435 76 75 148 120 252 158
66 24 87 27 208 27 121 0 142 -3 208 -27 103 -37 175 -83 251 -159 123 -122
181 -253 189 -427 6 -148 -27 -286 -90 -375 -11 -16 -18 -31 -15 -33 3 -3 38
-10 79 -16 60 -8 117 -6 323 15 138 15 585 61 995 103 731 75 747 77 848 64
57 -6 106 -9 109 -6 3 3 -21 59 -53 123 -32 65 -60 121 -62 125 -5 10 94 54
343 153 597 238 1255 417 1870 509 94 14 182 28 197 31 l27 4 -23 -52 c-13
-29 -121 -262 -240 -519 -119 -257 -216 -470 -216 -473 0 -12 65 -4 162 21 87
23 130 27 283 30 160 4 197 8 336 39 86 19 166 35 178 35 42 0 98 81 136 196
15 48 15 54 -6 134 -17 68 -20 101 -16 179 3 53 7 105 9 116 3 18 -3 20 -69
23 -95 4 -108 18 -116 135 -3 50 -16 113 -31 157 -46 131 -28 190 58 190 l43
0 6 114 c16 271 90 462 201 515 134 66 425 85 625 42 57 -12 120 -31 141 -41
109 -56 183 -246 197 -505 l6 -120 44 0 c35 0 49 -5 64 -24 23 -28 24 -90 3
-146 -22 -56 -43 -162 -44 -216 0 -70 -27 -99 -93 -99 -88 0 -95 -5 -86 -53
14 -75 10 -179 -12 -269 l-22 -87 23 -63 c31 -88 99 -193 167 -260 l58 -57 81
24 c183 53 396 58 584 13 93 -22 111 -22 705 -25 l610 -3 466 63 467 63 593
-62 c327 -35 776 -82 999 -105 l406 -43 285 39 285 38 228 -153 c125 -84 226
-156 224 -160 -2 -5 -86 -96 -188 -204 l-185 -196 -372 0 -372 0 -68 60 c-38
34 -105 79 -152 102 l-83 42 -192 4 -192 4 -587 -151 -587 -151 -297 19 c-404
27 -872 46 -1138 46 -189 0 -228 -3 -275 -19 -71 -24 -115 -57 -151 -115 -39
-60 -117 -262 -168 -436 -23 -77 -44 -146 -46 -152 -9 -28 313 -233 560 -359
433 -219 878 -351 1380 -410 209 -25 691 -25 895 -1 611 73 1136 248 1631 543
79 47 158 96 176 110 17 13 36 24 40 24 10 0 196 -203 324 -353 l84 -99 8 74
c15 133 -9 544 -39 663 -4 16 15 41 83 108 l88 87 17 -88 c44 -224 52 -330 52
-612 -1 -191 -6 -302 -16 -364 l-15 -90 105 -140 c362 -488 717 -1097 951
-1633 30 -68 56 -123 57 -123 2 0 4 2212 4 4915 l0 4915 -7955 0 -7955 0 0
-4957z m6340 3907 c587 -36 1145 -118 1734 -256 164 -38 426 -106 464 -119 8
-3 -9 -32 -49 -82 -33 -43 -64 -81 -68 -85 -4 -4 -47 3 -96 17 -162 45 -559
134 -777 174 -352 65 -679 108 -1103 143 -202 17 -982 17 -1180 0 -876 -75
-1560 -249 -2185 -558 -420 -207 -726 -421 -1016 -709 -233 -233 -402 -462
-545 -739 -210 -407 -319 -816 -354 -1327 l-7 -96 -80 -59 c-44 -32 -89 -65
-99 -73 -11 -8 -21 -12 -24 -9 -8 7 15 359 31 488 131 1047 642 1855 1543
2445 733 480 1721 776 2816 844 191 12 804 12 995 1z m2905 -206 c213 -55 358
-273 324 -486 -22 -141 -106 -256 -233 -318 -120 -59 -285 -53 -402 16 -63 37
-141 126 -177 201 -30 64 -32 75 -32 179 0 107 1 112 38 186 90 183 286 274
482 222z m1802 -65 c127 -40 316 -130 428 -204 397 -262 662 -654 767 -1136
19 -90 22 -134 23 -329 0 -249 -15 -356 -75 -541 -191 -584 -672 -1019 -1270
-1147 -382 -83 -771 -32 -1135 149 -346 171 -619 445 -793 794 -42 84 -122
290 -122 314 0 3 46 -16 103 -44 572 -281 1278 -192 1749 221 216 191 363 441
424 724 24 112 24 351 0 463 -53 245 -164 455 -339 643 -77 82 -79 75 31 104
91 25 98 24 209 -11z"/>
<path d="M13555 27587 c-106 -11 -205 -44 -244 -80 -77 -72 -134 -262 -147
-489 l-7 -117 -47 6 c-41 5 -49 3 -64 -18 -21 -31 -20 -51 9 -134 15 -39 29
-111 35 -165 11 -115 16 -120 116 -120 40 0 75 -3 77 -7 3 -5 -2 -39 -10 -78
-18 -83 -12 -174 17 -267 19 -61 19 -68 4 -119 -35 -116 -106 -227 -201 -315
l-55 -52 68 -12 c270 -47 357 -61 419 -65 67 -5 69 -5 40 9 -16 9 -68 30 -114
47 -102 38 -149 76 -133 106 14 26 71 53 112 53 37 0 56 -9 119 -57 43 -33
121 -73 142 -73 5 0 -23 42 -61 93 -67 87 -90 130 -76 144 3 3 29 -4 57 -16
101 -42 199 -21 291 61 52 47 134 143 169 201 l30 48 -181 -92 c-100 -50 -183
-90 -185 -88 -2 3 -5 45 -6 94 l-2 89 48 32 c26 18 51 36 56 41 4 4 -31 8 -79
9 -48 0 -107 7 -132 15 -43 14 -40 14 112 17 l157 3 26 30 c40 48 21 62 -80
57 -100 -4 -103 7 -15 65 35 23 62 47 60 52 -3 6 -42 9 -96 7 -94 -4 -134 6
-134 33 0 8 14 37 31 64 54 88 48 158 -17 231 l-34 37 -2 364 -3 364 -70 -8z
m-11 -739 c-18 -59 -67 -98 -122 -98 -38 0 -117 52 -137 89 l-16 31 141 0 141
0 -7 -22z"/>
<path d="M13890 26864 c0 -12 24 -51 48 -76 36 -39 73 -44 127 -18 42 20 95
71 95 91 0 5 -59 9 -135 9 -74 0 -135 -3 -135 -6z"/>
<path d="M13855 25749 c-27 -45 -52 -87 -54 -92 -6 -16 83 51 125 94 32 32 37
43 28 57 -25 39 -47 25 -99 -59z"/>
<path d="M13995 25625 c-33 -20 -73 -49 -90 -66 l-30 -29 85 36 c98 41 123 43
243 20 49 -10 91 -16 93 -13 9 8 -162 80 -201 84 -33 4 -51 -2 -100 -32z"/>
<path d="M19641 25334 c42 -42 81 -74 87 -70 5 3 38 37 72 76 l62 70 -148 0
-149 0 76 -76z"/>
<path d="M7358 25389 c-10 -5 -18 -17 -18 -27 0 -30 53 -202 62 -202 18 0 69
132 63 161 -14 63 -63 94 -107 68z"/>
<path d="M17675 25394 c-198 -21 -380 -84 -545 -188 l-65 -41 -735 0 -735 0
-73 -27 c-228 -83 -428 -275 -538 -515 -102 -222 -104 -225 -198 -318 -118
-117 -169 -144 -410 -211 -228 -63 -249 -70 -244 -86 3 -7 58 -29 124 -48 191
-57 236 -86 285 -182 41 -81 40 -113 -7 -301 -56 -226 -109 -476 -129 -610
-25 -171 -7 -194 82 -102 117 121 285 404 404 680 104 243 158 408 203 620 20
94 46 211 58 260 43 181 143 448 199 531 41 60 140 148 212 188 l62 34 430 -9
c237 -4 534 -16 660 -25 297 -22 539 -15 751 20 330 55 696 143 985 235 l127
41 213 -30 c118 -17 223 -32 234 -35 11 -2 72 -41 135 -86 178 -127 167 -124
417 -124 117 0 213 3 213 6 0 4 -18 23 -40 43 -43 39 -47 40 -182 36 -144 -3
-151 -1 -284 111 l-119 100 -400 -8 c-589 -12 -645 -11 -751 14 -91 21 -263
34 -339 27z"/>
<path d="M20079 25312 c-64 -69 -135 -169 -126 -178 7 -8 122 101 180 169 32
39 38 51 26 58 -22 14 -24 13 -80 -49z"/>
<path d="M7650 25242 c0 -4 31 -36 70 -71 l70 -62 85 66 c47 37 85 69 85 71 0
2 -70 4 -155 4 -85 0 -155 -4 -155 -8z"/>
<path d="M7501 25099 c41 -54 94 -79 164 -78 110 1 104 11 -32 57 -71 24 -135
46 -143 49 -9 4 -5 -7 11 -28z"/>
<path d="M9791 21742 l-404 -207 -562 -2095 -562 -2095 -71 -150 c-39 -82 -68
-153 -66 -157 3 -5 16 -8 30 -8 20 0 24 -4 20 -17 -3 -10 -78 -287 -166 -616
l-160 -598 40 -59 c151 -222 564 -785 575 -784 8 1 596 345 1307 765 711 419
1480 873 1708 1007 228 135 427 253 442 264 48 34 144 360 227 773 78 391 78
434 -8 870 -27 138 -59 312 -72 388 l-24 138 -105 61 c-836 486 -1447 1306
-1670 2240 l-24 97 47 101 c26 56 47 107 47 112 0 8 -138 179 -144 178 0 0
-183 -94 -405 -208z"/>
<path d="M17181 21463 c-13 -54 -50 -179 -82 -277 -32 -99 -58 -181 -56 -182
3 -3 295 57 355 73 l33 8 -103 215 c-57 118 -108 226 -113 238 -9 21 -14 11
-34 -75z"/>
<path d="M17430 20878 c-41 -11 -169 -39 -284 -63 l-208 -42 -67 -129 c-316
-606 -803 -1106 -1420 -1456 l-45 -25 -33 -184 c-18 -101 -54 -287 -79 -414
-51 -263 -61 -371 -45 -505 28 -226 142 -730 208 -917 l35 -102 543 -3 c299
-2 546 -6 550 -10 3 -3 -188 -255 -426 -559 -238 -305 -436 -565 -441 -579 -9
-27 -81 -732 -125 -1213 l-27 -298 23 -46 c38 -78 194 -301 212 -302 3 -1 561
676 1240 1504 l1234 1505 170 0 c94 0 175 -4 181 -8 7 -4 -467 -618 -1243
-1611 -689 -882 -1253 -1607 -1253 -1611 0 -4 25 -13 57 -19 32 -8 66 -23 80
-37 46 -46 21 -136 -58 -215 -66 -66 -105 -79 -241 -79 l-117 0 -286 -366
c-158 -201 -284 -369 -280 -372 10 -10 484 -7 532 4 41 9 62 33 624 709 1374
1652 2769 3341 4075 4935 187 228 444 541 570 695 496 605 483 586 487 686 l2
53 -1295 347 c-712 192 -1298 348 -1302 349 -12 0 38 -127 77 -198 19 -34 35
-67 35 -72 0 -12 -771 -1000 -780 -1000 -7 0 -120 238 -639 1345 -116 246
-155 325 -160 324 -3 0 -40 -10 -81 -21z m2899 -1502 c45 -14 89 -26 98 -26 8
0 13 -6 10 -13 -3 -7 -310 -404 -683 -881 l-678 -868 -52 104 c-29 56 -58 117
-64 135 l-11 32 637 776 c350 427 642 774 649 772 6 -3 48 -17 94 -31z"/>
<path d="M3680 18060 c-278 -588 -507 -1070 -510 -1070 -3 1 -349 462 -770
1026 l-765 1025 -3 -143 c-4 -166 12 -546 33 -798 104 -1219 440 -2417 991
-3526 l115 -231 947 434 c521 239 968 443 994 455 l47 20 538 -348 c296 -191
549 -354 562 -363 13 -8 -22 41 -78 109 -885 1074 -1420 2356 -1555 3725 -14
136 -33 476 -39 678 l-2 78 -505 -1071z"/>
<path d="M23256 18909 c-24 -808 -162 -1537 -422 -2237 -291 -781 -681 -1447
-1235 -2107 -30 -35 -31 -38 -9 -24 14 8 266 172 561 362 295 191 539 347 542
347 3 0 444 -201 979 -446 535 -246 980 -448 989 -451 20 -6 84 111 214 387
538 1143 838 2303 925 3570 12 171 26 730 19 730 -3 0 -349 -461 -770 -1024
-420 -564 -766 -1025 -769 -1025 -3 -1 -208 428 -455 952 -247 523 -474 1006
-505 1071 l-57 119 -7 -224z"/>
<path d="M13400 18501 l0 -254 -54 -91 c-146 -247 -199 -413 -230 -722 -8 -82
-22 -195 -31 -251 -8 -57 -15 -112 -15 -123 0 -20 6 -20 655 -20 l655 0 0 21
c0 11 -9 80 -19 152 -11 73 -25 186 -31 251 -19 213 -59 357 -174 635 l-56
134 0 265 0 265 -42 -6 c-82 -12 -434 -18 -545 -10 l-113 8 0 -254z"/>
<path d="M3647 14541 c-825 -373 -1097 -500 -1094 -511 6 -23 225 -364 360
-560 471 -686 920 -1224 1527 -1830 643 -644 1204 -1105 1925 -1585 1759
-1170 3757 -1860 5900 -2039 827 -70 1954 -74 2795 -10 3385 254 6408 1779
8617 4346 386 448 751 939 1065 1428 143 224 164 258 157 263 -7 8 -2202 998
-2204 995 -58 -98 -239 -375 -329 -502 -706 -1008 -1557 -1851 -2542 -2519
-1401 -950 -2973 -1488 -4764 -1632 -428 -34 -613 -39 -1335 -39 -722 0 -907
5 -1335 39 -1769 142 -3317 666 -4712 1597 -1108 740 -2089 1743 -2812 2878
-54 85 -104 160 -110 166 -8 9 -291 -115 -1109 -485z m7880 -4886 c1 -5 -8
-46 -22 -90 -13 -43 -22 -81 -20 -83 4 -4 71 11 151 34 19 5 22 -1 33 -56 7
-34 15 -68 18 -76 4 -11 -13 -14 -91 -14 l-96 0 55 -80 56 -79 -71 -36 -70
-35 -11 27 c-6 16 -17 44 -24 63 -7 19 -18 48 -24 64 l-12 29 -54 -74 c-30
-41 -58 -74 -63 -74 -9 0 -112 92 -112 100 0 2 34 30 75 63 l74 59 -82 23
c-45 13 -85 25 -89 27 -9 5 53 133 64 133 4 0 40 -20 80 -44 l73 -45 3 98 3
97 76 -10 c42 -6 78 -15 80 -21z m4563 -91 l0 -96 48 28 c26 15 61 36 79 47
l32 18 35 -69 35 -70 -91 -23 -90 -23 24 -21 c13 -11 46 -39 73 -62 l50 -42
-50 -50 c-27 -28 -54 -51 -60 -51 -5 0 -34 35 -64 76 l-55 76 -33 -88 c-19
-49 -35 -90 -37 -92 -6 -5 -136 62 -136 70 0 5 23 39 50 77 28 38 50 72 50 75
0 3 -40 6 -90 6 -49 0 -90 3 -90 8 1 18 28 134 33 138 2 3 42 -6 88 -19 46
-14 85 -24 86 -23 1 1 -10 41 -24 89 -13 49 -22 91 -19 95 8 7 78 19 124 21
l32 1 0 -96z m-3387 -1 c5 -9 -70 -1003 -76 -1009 -6 -6 -195 8 -207 16 -9 5
-4 103 17 379 25 326 27 371 13 365 -67 -29 -112 -43 -154 -49 l-49 -8 6 54
c4 30 7 72 7 95 l0 40 78 23 c42 12 111 40 152 61 65 34 84 39 142 40 37 0 69
-3 71 -7z m2383 -36 c126 -64 198 -209 211 -425 10 -164 -19 -296 -87 -401
-75 -116 -189 -171 -354 -171 -125 0 -162 11 -170 51 -6 34 -8 149 -2 149 2 0
23 -7 46 -15 50 -18 153 -20 201 -4 89 30 142 109 155 229 l6 65 -38 -37 c-53
-50 -100 -68 -181 -68 -114 1 -198 52 -251 155 -38 73 -43 206 -11 289 37 99
128 180 233 207 17 4 67 7 111 5 63 -2 91 -8 131 -29z m-1620 -30 c91 -46 160
-145 185 -267 7 -33 10 -109 7 -195 -4 -114 -10 -155 -31 -217 -58 -178 -166
-280 -328 -308 -72 -12 -180 -3 -254 23 l-40 14 4 89 c1 49 4 90 5 91 1 1 21
-7 45 -19 60 -30 176 -36 236 -14 77 30 145 136 145 229 l0 30 -22 -20 c-47
-42 -90 -57 -168 -57 -93 0 -153 26 -210 91 -56 64 -73 124 -68 237 3 70 10
101 27 136 49 94 99 138 194 172 76 27 204 20 273 -15z m802 9 c65 -23 121
-66 149 -114 69 -117 40 -236 -78 -322 l-38 -27 39 -18 c53 -24 108 -78 131
-129 23 -50 25 -162 5 -211 -24 -56 -91 -120 -159 -151 -57 -26 -71 -29 -177
-29 -137 0 -203 22 -270 86 -57 55 -80 109 -80 189 0 108 53 193 146 238 l32
15 -46 31 c-26 17 -60 53 -76 79 -39 63 -43 159 -9 223 26 49 92 111 142 131
81 34 206 38 289 9z"/>
<path d="M14873 9370 c-55 -33 -79 -103 -61 -183 15 -72 52 -108 116 -115 50
-4 53 -3 92 36 38 37 40 43 40 98 0 75 -28 137 -72 164 -41 25 -74 25 -115 0z"/>
<path d="M13258 9345 c-53 -29 -83 -120 -67 -197 26 -118 160 -147 226 -49 40
59 26 175 -27 226 -34 33 -94 42 -132 20z"/>
<path d="M14072 9344 c-71 -49 -67 -170 8 -209 105 -54 210 58 155 165 -21 41
-53 60 -100 60 -22 0 -51 -7 -63 -16z"/>
<path d="M14096 8940 c-116 -36 -131 -220 -21 -266 104 -43 205 18 205 126 0
100 -91 169 -184 140z"/>
<path d="M4990 14950 c111 -157 483 -656 490 -658 8 -3 139 66 218 115 23 14
15 21 -325 275 -191 143 -361 270 -378 281 l-30 22 25 -35z"/>
<path d="M22102 14701 c-270 -202 -369 -281 -360 -288 32 -25 219 -124 227
-121 5 1 106 134 223 293 292 397 290 395 286 395 -3 0 -172 -125 -376 -279z"/>
<path d="M14401 14219 l-523 -671 36 -52 c156 -227 479 -482 771 -610 55 -24
109 -46 120 -49 17 -5 67 52 299 335 206 253 275 343 265 349 -226 134 -327
199 -343 222 -19 26 -21 43 -21 181 l0 153 -35 64 -35 64 -5 342 -5 343 -524
-671z"/>
<path d="M15218 12733 c7 -3 16 -2 19 1 4 3 -2 6 -13 5 -11 0 -14 -3 -6 -6z"/>
<path d="M7185 8223 c-83 -196 -153 -364 -157 -373 -5 -15 29 -32 212 -109
120 -50 222 -91 225 -91 8 0 55 106 55 123 0 7 -59 37 -130 66 -72 30 -133 57
-135 61 -9 15 62 165 76 162 8 -2 63 -23 122 -48 60 -25 110 -44 112 -42 6 6
55 131 52 134 -1 1 -54 23 -117 49 -63 26 -117 49 -119 51 -5 5 61 164 69 164
4 0 63 -24 132 -54 l126 -53 26 59 c14 33 26 65 26 71 0 9 -322 150 -418 185
-4 1 -75 -158 -157 -355z"/>
<path d="M19820 8454 c-47 -20 -89 -39 -93 -44 -7 -6 21 -849 28 -858 1 -1 42
15 90 35 l89 39 -4 59 c-1 33 -3 76 -4 95 l-1 35 130 53 130 53 30 -33 c17
-18 44 -51 62 -72 l32 -39 78 32 c43 17 84 35 91 39 9 6 -72 103 -269 323
-155 173 -286 315 -293 316 -6 2 -49 -13 -96 -33z m178 -302 c52 -62 93 -114
91 -116 -8 -7 -181 -77 -184 -74 -1 2 -8 73 -14 158 -7 85 -15 164 -18 175 -4
16 -1 15 13 -5 10 -14 61 -76 112 -138z"/>
<path d="M7881 8322 c-31 -79 -261 -718 -261 -727 0 -11 248 -104 332 -125 26
-7 84 -10 130 -8 140 6 252 75 316 195 92 175 86 350 -16 456 -75 78 -130 107
-380 196 l-110 40 -11 -27z m269 -232 c49 -25 97 -84 111 -135 23 -85 -16
-210 -86 -278 -45 -43 -127 -72 -178 -62 -52 10 -157 46 -157 53 0 4 39 114
86 244 l86 237 50 -20 c27 -10 66 -28 88 -39z"/>
<path d="M19047 8160 c-43 -15 -80 -29 -82 -32 -5 -5 254 -739 266 -752 10
-11 449 145 449 160 0 6 -10 38 -22 71 l-23 59 -138 -49 c-76 -27 -140 -48
-142 -45 -3 3 -53 140 -111 304 -59 164 -109 302 -113 306 -3 3 -41 -6 -84
-22z"/>
<path d="M18598 8013 c-136 -43 -208 -71 -208 -80 0 -10 228 -750 234 -760 1
-2 452 137 463 142 1 0 -8 33 -20 72 l-22 71 -143 -45 c-79 -25 -145 -44 -147
-42 -9 10 -52 169 -47 173 4 2 59 20 122 41 63 20 117 38 119 40 6 6 -40 135
-48 135 -4 0 -57 -16 -117 -35 -60 -19 -114 -35 -120 -35 -6 0 -22 37 -36 83
l-26 82 130 42 c72 23 133 44 135 47 9 9 -35 131 -48 133 -8 1 -107 -28 -221
-64z"/>
<path d="M8807 7990 c-298 -75 -424 -511 -207 -714 87 -82 197 -121 319 -114
172 10 291 113 357 308 24 73 25 207 1 275 -37 107 -133 195 -252 231 -64 19
-169 26 -218 14z m160 -162 c61 -15 115 -69 133 -133 34 -120 -43 -311 -144
-359 -64 -30 -159 -14 -215 37 -112 103 -57 367 91 441 59 29 71 31 135 14z"/>
<path d="M18142 7875 c-46 -13 -85 -25 -87 -27 -1 -2 26 -111 61 -243 36 -132
65 -262 66 -290 2 -68 -22 -111 -75 -136 -81 -36 -152 -17 -196 54 -11 19 -51
146 -87 283 -36 137 -67 250 -69 252 -3 3 -166 -38 -173 -43 -1 -1 29 -120 67
-264 76 -283 100 -341 168 -401 55 -48 112 -64 210 -58 146 10 256 71 307 171
48 95 43 159 -38 467 -37 140 -68 256 -69 256 -1 1 -40 -9 -85 -21z"/>
<path d="M17173 7637 c-155 -34 -284 -65 -288 -68 -9 -10 18 -131 30 -135 5
-2 90 13 188 34 159 35 177 37 172 21 -3 -10 -66 -149 -140 -310 -74 -161
-135 -302 -135 -313 0 -12 5 -37 10 -57 l10 -36 248 53 c136 30 279 61 318 69
l71 16 -15 69 c-9 40 -21 70 -28 70 -6 0 -94 -18 -195 -39 -101 -22 -185 -39
-186 -37 -2 1 59 144 135 316 138 312 138 313 129 362 -7 34 -14 48 -26 47 -9
0 -143 -28 -298 -62z"/>
<path d="M10061 7643 c-27 -104 -162 -746 -157 -750 7 -8 459 -104 464 -99 9
10 30 131 24 137 -4 4 -65 19 -137 34 -71 15 -133 30 -138 34 -4 4 22 144 58
312 36 167 67 310 68 318 1 11 -20 20 -73 33 -100 23 -98 23 -109 -19z"/>
<path d="M16530 7512 c-113 -19 -206 -36 -207 -37 -5 -3 134 -785 140 -791 6
-6 452 66 467 76 14 9 -13 134 -30 137 -8 2 -75 -7 -148 -20 -91 -16 -135 -20
-138 -13 -2 6 -10 46 -18 89 -10 57 -10 80 -2 83 6 2 62 13 125 24 63 11 116
22 119 24 2 3 -1 36 -8 74 l-11 69 -127 -22 c-70 -13 -130 -20 -133 -16 -8 8
-32 161 -26 167 2 2 55 13 118 24 175 31 158 22 148 77 -16 89 -18 93 -42 92
-12 -1 -114 -17 -227 -37z"/>
<path d="M10654 7153 c-115 -202 -210 -370 -212 -374 -2 -4 28 -12 65 -18 37
-7 82 -14 98 -17 29 -5 31 -3 72 79 l41 84 136 -23 c75 -12 140 -25 145 -28 4
-3 12 -34 15 -68 14 -123 7 -114 106 -132 48 -9 92 -16 97 -16 5 0 -19 161
-53 358 -35 196 -68 387 -74 423 l-11 66 -99 17 c-55 9 -103 16 -108 16 -5 0
-103 -165 -218 -367z m307 24 c12 -87 19 -160 16 -164 -6 -5 -138 12 -178 23
-13 4 -2 32 60 153 42 82 77 148 78 147 2 -1 12 -73 24 -159z"/>
<path d="M16065 7436 c-44 -5 -81 -9 -82 -10 -2 -2 13 -123 32 -271 18 -148
33 -270 32 -271 -2 -2 -369 428 -407 476 -14 18 -21 19 -112 8 -56 -7 -98 -16
-98 -22 0 -29 98 -788 102 -792 5 -4 160 15 165 20 2 1 -13 125 -32 276 -19
150 -34 274 -32 276 2 2 253 -290 419 -487 17 -20 22 -20 105 -9 48 6 89 13
92 15 4 5 -87 742 -97 775 -7 25 -7 25 -87 16z"/>
<path d="M11445 7397 c-10 -58 -95 -770 -93 -772 6 -6 172 -25 176 -21 2 3 10
58 18 123 23 195 20 185 57 177 17 -3 40 -12 50 -18 17 -10 90 -150 144 -277
l20 -45 99 -12 c54 -6 100 -10 102 -8 9 9 -149 317 -181 352 l-36 40 49 17
c100 36 150 108 150 216 0 68 -13 102 -57 143 -49 47 -110 66 -279 88 -87 11
-171 22 -186 25 -24 4 -28 1 -33 -28z m292 -149 c42 -12 73 -52 73 -92 0 -37
-30 -90 -62 -107 -22 -12 -145 -15 -156 -5 -3 3 1 55 8 116 l13 111 46 -6 c25
-4 61 -11 78 -17z"/>
<path d="M15015 7323 c-99 -8 -182 -17 -184 -19 -5 -4 58 -797 64 -802 4 -4
426 26 460 33 18 4 20 11 17 75 l-4 70 -36 0 c-20 0 -88 -5 -151 -10 -63 -6
-115 -9 -117 -7 -2 1 -6 44 -10 94 l-7 91 127 7 c69 4 129 12 132 17 3 5 3 39
-1 75 l-7 65 -115 -7 c-63 -4 -122 -8 -131 -9 -14 -1 -18 13 -24 84 -4 46 -5
87 -2 89 3 3 65 9 139 15 l135 9 0 58 c0 31 -3 64 -6 73 -7 19 -28 19 -279 -1z"/>
<path d="M12217 6935 l-176 -390 25 -7 c14 -4 58 -8 97 -9 l72 -2 35 84 36 84
85 -4 c46 -1 111 -6 143 -10 l60 -6 22 -88 c12 -49 24 -90 26 -91 1 -2 45 -7
96 -10 73 -6 92 -5 92 6 0 14 -217 809 -222 814 -2 1 -51 6 -109 11 l-106 8
-176 -390z m308 43 c19 -80 35 -149 35 -152 0 -7 -184 5 -192 13 -4 4 19 74
52 156 33 83 60 157 61 165 1 8 4 4 6 -10 2 -14 19 -91 38 -172z"/>
<path d="M14608 7293 c-48 -3 -57 -7 -62 -26 -3 -12 -39 -152 -80 -310 -67
-263 -86 -325 -86 -287 0 12 -198 603 -203 606 -1 1 -45 -2 -98 -5 l-97 -6
152 -395 151 -395 55 -3 c30 -2 78 -1 106 3 l50 6 119 392 c65 216 120 400
123 410 5 18 5 18 -130 10z"/>
<path d="M9293 7196 c-95 -42 -57 -176 50 -176 80 0 126 64 93 129 -26 50 -89
70 -143 47z"/>
<path d="M13280 6777 l0 -67 155 0 155 0 0 60 0 60 -57 0 c-32 0 -102 3 -155
7 l-98 6 0 -66z"/>
<path d="M9060 4210 l0 -300 8028 0 c5493 0 8062 -3 8137 -10 142 -14 236 -33
361 -75 241 -80 434 -204 624 -401 207 -215 342 -475 401 -771 27 -139 37
-474 20 -647 -39 -373 -190 -689 -455 -951 -215 -212 -461 -345 -775 -418
l-96 -22 -8122 -2 -8123 -3 0 -305 0 -305 8208 0 c6934 1 8225 3 8322 14 815
99 1499 658 1754 1435 83 254 106 430 106 806 0 355 -18 511 -85 746 -225 783
-915 1381 -1724 1493 -101 14 -930 16 -8346 16 l-8235 0 0 -300z"/>
<path d="M1703 3459 c-111 -54 -153 -184 -153 -470 l0 -139 130 0 130 0 0 130
0 129 -62 3 -63 3 3 50 c2 28 8 68 13 89 12 43 67 106 93 106 13 0 16 12 16
60 l0 60 -32 0 c-18 -1 -52 -10 -75 -21z"/>
<path d="M2099 3457 c-27 -14 -57 -42 -76 -71 -54 -80 -65 -130 -70 -343 l-6
-193 132 0 131 0 0 130 0 129 -62 3 -63 3 3 50 c2 28 8 68 14 89 11 43 66 106
92 106 13 0 16 12 16 60 l0 60 -33 0 c-19 0 -54 -10 -78 -23z"/>
<path d="M3041 3428 c-5 -13 -165 -430 -356 -928 -191 -498 -350 -913 -353
-922 -4 -17 7 -18 126 -18 l130 0 104 288 104 287 396 3 396 2 36 -92 c20 -51
69 -181 110 -288 l74 -195 141 -3 c78 -1 141 -1 141 0 0 2 -173 426 -384 943
l-384 940 -136 3 c-134 3 -136 2 -145 -20z m313 -664 c86 -226 156 -416 156
-422 0 -9 -81 -12 -320 -12 -194 0 -320 4 -320 9 0 8 261 737 300 836 9 24 13
27 20 15 4 -8 78 -200 164 -426z"/>
<path d="M10438 3141 l-3 -310 -58 38 c-156 103 -381 117 -554 34 -81 -38
-198 -157 -245 -248 -69 -133 -83 -204 -83 -425 0 -173 3 -204 23 -273 81
-281 260 -427 523 -427 141 0 247 42 349 139 24 22 45 41 47 41 1 0 3 -34 3
-75 l0 -75 120 0 120 0 0 945 0 945 -120 0 -120 0 -2 -309z m-227 -391 c69
-21 132 -57 192 -109 l37 -33 0 -334 0 -333 -77 -79 c-115 -116 -229 -164
-344 -142 -70 14 -109 34 -157 83 -92 95 -126 213 -125 437 0 173 19 268 70
362 34 62 110 132 166 151 60 22 163 21 238 -3z"/>
<path d="M14140 2505 l0 -945 120 0 120 0 0 445 0 445 495 0 495 0 0 -445 0
-445 125 0 125 0 0 945 0 945 -125 0 -125 0 0 -390 0 -390 -495 0 -495 0 0
390 0 390 -120 0 -120 0 0 -945z"/>
<path d="M18810 3320 l0 -130 120 0 120 0 0 130 0 130 -120 0 -120 0 0 -130z"/>
<path d="M23230 3140 c0 -170 -3 -310 -6 -310 -3 0 -20 11 -37 24 -131 100
-350 132 -514 75 -170 -58 -313 -226 -369 -434 -22 -81 -30 -352 -14 -453 52
-325 250 -512 541 -512 144 0 260 49 360 152 l39 40 0 -81 0 -81 120 0 120 0
0 945 0 945 -120 0 -120 0 0 -310z m-239 -386 c74 -22 116 -45 182 -99 l57
-46 0 -329 0 -328 -46 -57 c-119 -146 -274 -207 -419 -166 -70 21 -163 114
-193 194 -75 200 -63 517 25 679 34 62 110 132 166 151 56 20 161 21 228 1z"/>
<path d="M25240 3320 l0 -129 62 -3 62 -3 -2 -50 c-4 -74 -29 -141 -63 -170
-17 -14 -37 -25 -45 -25 -10 0 -14 -15 -14 -60 0 -59 0 -60 28 -60 15 0 51 11
79 25 114 57 153 176 153 466 l0 139 -130 0 -130 0 0 -130z"/>
<path d="M25640 3320 l0 -129 63 -3 62 -3 -3 -50 c-2 -27 -8 -68 -14 -89 -11
-43 -66 -106 -92 -106 -13 0 -16 -12 -16 -60 0 -59 0 -60 28 -60 45 0 127 47
157 90 52 74 67 147 72 353 l6 187 -132 0 -131 0 0 -130z"/>
<path d="M4800 2946 c-79 -17 -161 -61 -230 -124 l-60 -54 0 81 0 81 -120 0
-120 0 0 -950 0 -950 120 0 120 0 0 316 0 316 23 -16 c109 -79 186 -106 322
-113 183 -10 291 31 415 156 123 124 183 277 196 501 15 256 -48 477 -177 615
-118 126 -307 181 -489 141z m216 -204 c58 -30 129 -112 155 -180 65 -172 65
-454 0 -622 -63 -163 -196 -245 -358 -220 -82 13 -189 63 -255 120 l-48 42 0
328 0 328 64 69 c116 125 199 166 326 160 51 -3 88 -10 116 -25z"/>
<path d="M6264 2951 c-67 -17 -132 -57 -201 -128 l-73 -73 0 90 0 90 -120 0
-120 0 0 -685 0 -685 120 0 120 0 0 491 0 492 69 67 c94 93 148 113 289 108
l102 -3 0 116 0 117 -31 6 c-40 8 -115 6 -155 -3z"/>
<path d="M7064 2950 c-189 -28 -358 -151 -441 -320 -64 -132 -77 -198 -77
-385 0 -187 14 -256 75 -384 77 -158 235 -278 414 -316 89 -19 260 -19 348 0
94 20 205 75 271 136 59 54 117 156 135 237 l9 42 -123 0 -122 0 -13 -45 c-27
-96 -128 -170 -267 -195 -154 -27 -317 45 -401 178 -36 56 -71 168 -75 237
l-2 50 514 3 514 2 -6 123 c-7 142 -31 238 -85 342 -116 221 -379 337 -668
295z m279 -215 c70 -34 140 -107 172 -178 28 -61 57 -166 49 -178 -3 -5 -176
-9 -385 -9 l-379 0 0 23 c0 32 28 124 52 172 71 140 189 208 348 202 69 -3 96
-9 143 -32z"/>
<path d="M8636 2945 c-81 -21 -164 -67 -236 -132 l-60 -55 0 86 0 86 -120 0
-120 0 0 -685 0 -685 120 0 120 0 0 490 0 490 42 46 c58 63 156 131 222 155
112 39 238 18 300 -51 64 -72 66 -86 66 -637 l0 -493 120 0 121 0 -3 533 c-4
588 -2 574 -70 687 -42 69 -115 125 -198 151 -87 27 -227 33 -304 14z"/>
<path d="M11480 2950 c-241 -38 -419 -203 -492 -455 -20 -69 -23 -102 -23
-250 0 -196 11 -251 77 -385 77 -159 233 -277 413 -315 93 -19 258 -19 348 1
210 46 376 199 403 372 l7 43 -124 -3 -123 -3 -6 -30 c-22 -104 -123 -181
-270 -204 -172 -28 -345 61 -421 214 -31 64 -66 212 -56 239 6 14 60 16 517
16 l510 0 0 69 c0 156 -38 311 -102 418 -73 123 -206 221 -346 258 -77 19
-236 27 -312 15z m284 -219 c75 -36 133 -97 171 -177 27 -56 57 -169 47 -178
-7 -8 -757 -8 -764 0 -10 9 20 122 47 178 68 145 191 219 352 213 67 -3 92 -9
147 -36z"/>
<path d="M13037 2949 c-70 -16 -142 -61 -209 -131 l-68 -70 0 91 0 91 -120 0
-120 0 0 -685 0 -685 120 0 120 0 0 489 0 490 63 63 c34 35 85 75 112 88 45
23 62 25 173 25 l122 0 0 116 0 116 -37 7 c-50 8 -109 6 -156 -5z"/>
<path d="M16412 2950 c-181 -26 -302 -90 -370 -198 -33 -51 -62 -138 -62 -184
l0 -28 120 0 120 0 0 25 c0 67 54 133 140 173 46 21 74 27 165 30 177 7 277
-29 329 -118 15 -25 21 -58 24 -140 l4 -107 -178 -6 c-99 -3 -219 -13 -269
-21 -238 -40 -392 -130 -461 -271 -27 -56 -29 -68 -29 -175 0 -103 3 -121 26
-170 49 -104 169 -192 297 -219 76 -16 220 -14 309 5 91 19 166 50 244 104
l59 40 0 -65 0 -65 120 0 120 0 0 503 c0 393 -3 516 -14 568 -47 218 -196 314
-506 324 -69 2 -153 0 -188 -5z m468 -887 l0 -157 -54 -51 c-168 -159 -470
-187 -590 -55 -30 34 -56 91 -56 127 0 56 26 120 66 163 87 93 213 128 467
129 l167 1 0 -157z"/>
<path d="M17919 2950 c-196 -31 -357 -149 -440 -324 -119 -248 -100 -628 42
-841 115 -172 285 -255 524 -255 240 0 410 91 495 263 22 45 43 101 46 125 l7
43 -123 -3 -123 -3 -12 -48 c-16 -62 -39 -94 -99 -134 -62 -42 -114 -56 -201
-56 -172 2 -298 106 -357 293 -20 66 -23 95 -23 235 0 126 4 173 19 220 41
136 111 225 214 273 50 24 69 27 157 27 86 0 107 -4 149 -25 87 -42 129 -97
150 -192 l6 -28 120 0 c138 0 133 -5 100 101 -48 156 -169 268 -340 315 -68
18 -236 26 -311 14z"/>
<path d="M19850 2950 c-247 -39 -437 -222 -497 -477 -28 -120 -25 -370 5 -478
53 -184 159 -318 313 -394 104 -51 194 -71 327 -71 254 0 453 101 537 273 19
40 38 91 41 115 l7 42 -122 0 -121 0 -6 -27 c-27 -113 -126 -189 -274 -212
-183 -29 -365 73 -433 242 -28 71 -52 188 -43 212 5 13 73 15 517 15 l512 0
-6 118 c-8 146 -26 224 -79 330 -71 145 -207 256 -364 297 -73 19 -240 27
-314 15z m236 -197 c96 -32 178 -105 220 -198 26 -55 55 -171 46 -179 -3 -3
-176 -6 -384 -6 l-378 0 0 23 c0 34 26 122 49 170 44 92 126 162 224 192 59
19 164 18 223 -2z"/>
<path d="M21426 2944 c-80 -19 -164 -66 -236 -131 l-60 -55 0 86 0 86 -120 0
-120 0 0 -685 0 -685 120 0 120 0 0 494 0 494 76 70 c99 92 183 134 280 140
124 8 207 -36 251 -133 16 -37 18 -84 21 -552 l3 -513 119 0 120 0 0 503 c0
536 -4 587 -50 678 -41 80 -86 126 -163 163 -111 54 -242 69 -361 40z"/>
<path d="M24240 2945 c-224 -42 -393 -202 -460 -435 -28 -96 -38 -312 -21
-431 51 -345 283 -549 625 -549 199 1 339 53 457 170 75 76 134 183 165 305
28 106 25 381 -4 488 -35 128 -77 203 -162 287 -83 84 -159 129 -259 155 -89
23 -249 28 -341 10z m302 -207 c102 -47 173 -137 214 -273 15 -47 19 -94 19
-220 0 -140 -3 -169 -23 -235 -53 -169 -155 -265 -310 -290 -115 -19 -230 20
-313 107 -95 98 -132 216 -131 418 1 275 87 440 265 506 76 28 202 22 279 -13z"/>
<path d="M18810 2245 l0 -685 120 0 120 0 0 685 0 685 -120 0 -120 0 0 -685z"/>
</g>
</svg>
